<svg xmlns="http://www.w3.org/2000/svg" version="1.1" xmlns:xlink="http://www.w3.org/1999/xlink" width="1000" height="1000"><g clip-path="url(#SvgjsClipPath1098)"><rect width="1000" height="1000" fill="#ffffff"></rect><g transform="matrix(1.5625,0,0,1.5625,100,100)"><svg xmlns="http://www.w3.org/2000/svg" version="1.1" xmlns:xlink="http://www.w3.org/1999/xlink" width="512" height="512"><svg version="1.1" xmlns="http://www.w3.org/2000/svg" width="512" height="512">
<path d="M0 0 C2.87046928 1.64323966 4.94979035 2.49362589 8.24902344 1.78466797 C8.99700195 1.51799316 9.74498047 1.25131836 10.515625 0.9765625 C11.37220703 0.68289795 12.22878906 0.3892334 13.11132812 0.08666992 C14.03365234 -0.2358374 14.95597656 -0.55834473 15.90625 -0.890625 C79.58517582 -22.16130298 150.30053958 -14.88630966 210.08203125 14.6328125 C230.35412225 24.88950241 249.04727687 37.77477264 265.8046875 53.10546875 C267.80084463 54.91262097 269.83701365 56.63794646 271.90625 58.359375 C310.88246825 92.55179182 335.36904617 143.32380429 346.15625 193.234375 C346.36652832 194.1330127 346.57680664 195.03165039 346.79345703 195.95751953 C353.51948249 225.26339294 352.79516649 259.77425617 347.15625 289.234375 C346.99527832 290.14268066 346.83430664 291.05098633 346.66845703 291.98681641 C341.05925252 323.21192703 329.3401547 353.54870398 312.15625 380.234375 C311.72876465 380.89840332 311.3012793 381.56243164 310.86083984 382.24658203 C300.74790027 397.77007542 288.94251786 411.85683464 276.15625 425.234375 C275.44984375 425.98203125 274.7434375 426.7296875 274.015625 427.5 C268.78571483 432.89998855 263.03181371 437.55821577 257.15625 442.234375 C256.10589668 443.09789614 255.05644037 443.96250935 254.0078125 444.828125 C222.82939391 470.30120251 184.98635222 486.72160057 145.78125 495.046875 C144.86827148 495.24176514 143.95529297 495.43665527 143.01464844 495.63745117 C126.86035798 498.88347358 110.96657808 499.60945773 94.53125 499.546875 C93.00439072 499.54364227 93.00439072 499.54364227 91.44668579 499.54034424 C76.83995965 499.49068151 62.50214313 499.24806009 48.15625 496.234375 C47.16544434 496.03038086 46.17463867 495.82638672 45.15380859 495.61621094 C23.92044992 491.12711495 3.74568353 484.55921775 -15.84375 475.234375 C-16.85381104 474.76112793 -16.85381104 474.76112793 -17.88427734 474.27832031 C-33.5333854 466.91358523 -48.31812968 458.03165131 -61.84375 447.234375 C-62.77574219 446.49445313 -63.70773438 445.75453125 -64.66796875 444.9921875 C-80.34466332 432.35462898 -95.70775065 418.37378692 -107.84375 402.234375 C-108.32376465 401.60370117 -108.8037793 400.97302734 -109.29833984 400.32324219 C-117.76965227 389.14100562 -125.17166922 377.57208833 -131.84375 365.234375 C-132.21338867 364.55165527 -132.58302734 363.86893555 -132.96386719 363.16552734 C-143.69104818 343.10026115 -151.3275012 321.54028349 -156.53125 299.421875 C-156.72162842 298.63055176 -156.91200684 297.83922852 -157.1081543 297.02392578 C-161.09556727 279.24142032 -162.3696846 261.47314619 -162.21875 243.296875 C-162.21409729 242.2914566 -162.20944458 241.28603821 -162.20465088 240.25015259 C-162.12604258 225.74289089 -161.82779929 211.48166872 -158.84375 197.234375 C-158.64507324 196.25952148 -158.44639648 195.28466797 -158.24169922 194.28027344 C-151.22871513 160.75453229 -139.2059764 126.94300142 -118.15869141 99.53417969 C-116.02308241 96.62987432 -114.82932515 94.85784921 -114.9140625 91.1953125 C-115.22085938 90.21820313 -115.52765625 89.24109375 -115.84375 88.234375 C-116.16472656 87.19023438 -116.48570313 86.14609375 -116.81640625 85.0703125 C-117.17605469 83.92820312 -117.53570312 82.78609375 -117.90625 81.609375 C-123.2464869 62.74451134 -119.77681111 43.40740664 -110.69921875 26.35546875 C-108.09269471 21.97102094 -105.16368979 18.09511947 -101.84375 14.234375 C-101.08191406 13.24050781 -101.08191406 13.24050781 -100.3046875 12.2265625 C-76.50625729 -17.66801733 -30.36339034 -19.63499242 0 0 Z " fill="#010201" transform="translate(161.84375,12.765625)"></path>
<path d="M0 0 C-0.25692627 0.6391333 -0.51385254 1.2782666 -0.77856445 1.93676758 C-1.96277327 4.89289182 -3.13766299 7.85263933 -4.3125 10.8125 C-4.91868164 12.31973633 -4.91868164 12.31973633 -5.53710938 13.85742188 C-14.13975826 35.6088349 -16.39083576 57.89885243 -7.75 80 C-3.27632624 90.19519718 2.32502869 98.61904026 9.56640625 107.05078125 C16.83892135 115.86418237 22.85865183 125.15326567 22.46875 136.8828125 C19.38767554 157.37195766 2.74260647 173.85305543 -13.25 185.6875 C-28.10279621 196.3271325 -43.55727089 204.13305973 -60.83203125 209.99609375 C-62.34869385 210.51212158 -62.34869385 210.51212158 -63.89599609 211.03857422 C-65.86201249 211.7004359 -67.83220386 212.35007795 -69.80712891 212.98486328 C-80.84517191 216.65517237 -90.79905039 221.98000529 -96.375 232.625 C-99.97061619 246.28834153 -98.18647919 260.01821194 -91.25 272.375 C-84.9778511 281.89243987 -76.73914007 288.7745047 -65.484375 291.640625 C-56.8470857 292.89004421 -48.92743065 291.89688886 -40.5 290 C-25.54413228 286.75684875 -11.37202064 287.33861462 3.6875 289.75 C5.15654785 289.98493164 5.15654785 289.98493164 6.65527344 290.22460938 C15.63182507 291.82657859 26.21761265 294.33105126 32 302 C34.44435873 307.57805528 35.39729897 312.05651653 35.15234375 318.171875 C35.12051135 319.7296399 35.08945226 321.28742075 35.05908203 322.84521484 C35.03831604 323.64707214 35.01755005 324.44892944 34.99615479 325.27508545 C34.51354268 345.63870477 36.3028959 363.35686041 45 382 C45.40089844 382.88300781 45.80179688 383.76601563 46.21484375 384.67578125 C49.03003654 390.31564559 52.84020577 394.37303167 58 398 C63.17695764 399.72565255 68.12288018 399.6858707 73.25 397.8125 C83.24115944 391.22741764 90.14517823 379.58945811 97 370 C100.65955955 371.21985318 101.02886465 372.1960939 103.00390625 375.41796875 C103.57455811 376.33570068 104.14520996 377.25343262 104.7331543 378.19897461 C105.63868042 379.67829468 105.63868042 379.67829468 106.5625 381.1875 C111.70448612 389.42804047 116.97160542 397.47110346 122.74072266 405.28320312 C124.14929984 407.20354333 125.53410839 409.13990459 126.91796875 411.078125 C127.90332287 412.448149 128.88899322 413.81794563 129.875 415.1875 C130.32770264 415.82421631 130.78040527 416.46093262 131.24682617 417.11694336 C134.4934374 421.77682054 134.4934374 421.77682054 139 425 C143.27497113 425.02895014 145.27276437 424.68487239 148.4140625 421.7265625 C149.14367187 420.70304687 149.87328125 419.67953125 150.625 418.625 C151.03758057 418.05555664 151.45016113 417.48611328 151.87524414 416.89941406 C153.2748838 414.94926152 154.63840596 412.97688084 156 411 C157.04817708 409.50260417 158.09635417 408.00520833 159.14453125 406.5078125 C170.24980988 390.52914946 180.62797942 374.15736024 190.55712891 357.42626953 C193.02502802 353.27635729 195.51298515 349.13847566 198 345 C208.71937877 346.84816875 218.77138732 351.28704929 228 357 C227.3642201 361.05309685 225.20873621 364.13922015 223 367.5 C222.59628174 368.11875 222.19256348 368.7375 221.77661133 369.375 C207.80389655 390.56337774 190.33303593 410.69727244 170 426 C169.37996094 426.47469727 168.75992187 426.94939453 168.12109375 427.43847656 C136.88569427 451.25028252 99.77363796 467.93094937 60.875 474.125 C59.85535156 474.29386719 58.83570313 474.46273438 57.78515625 474.63671875 C54.85971401 475.11365221 51.93181722 475.56413304 49 476 C48.29133789 476.11037598 47.58267578 476.22075195 46.85253906 476.33447266 C39.70556517 477.30125456 32.48658853 477.15046728 25.2890625 477.13037109 C23.00514081 477.12501206 20.72141572 477.13034184 18.4375 477.13671875 C3.23931848 477.14738283 3.23931848 477.14738283 -3 476 C-8.31331816 470.14172613 -9.39194053 463.3073497 -9.375 455.6875 C-9.37338867 454.9356543 -9.37177734 454.18380859 -9.37011719 453.40917969 C-9.24196759 447.60224385 -8.32162845 442.87992328 -5 438 C-4.4534375 437.17886719 -3.906875 436.35773438 -3.34375 435.51171875 C-0.3374563 432.289974 2.78225087 430.86156713 6.75 429.0625 C19.80543817 422.81534611 28.5532199 415.66513973 34.0546875 401.9296875 C39.47131625 385.14261491 36.90113882 365.31791112 29.390625 349.640625 C27.72975442 346.63886808 25.94642701 343.82374735 24 341 C23.41605469 340.12859375 22.83210937 339.2571875 22.23046875 338.359375 C14.23652652 327.38663745 1.41766203 319.17326731 -11.90234375 316.39453125 C-27.08673014 314.4605804 -38.26379527 317.96343687 -51.57910156 324.85644531 C-59.75530368 329.01978749 -68.3247217 332.05272911 -77 335 C-77.97839844 335.33306152 -77.97839844 335.33306152 -78.9765625 335.67285156 C-94.97126769 341.04128719 -114.88715917 343.49397831 -130.4609375 335.78125 C-137.13042356 332.0873808 -142.5297114 327.26181724 -148 322 C-148.886875 321.17628906 -149.77375 320.35257812 -150.6875 319.50390625 C-177.0282203 294.32307562 -186.07215517 261.65291258 -191.23754883 226.61352539 C-191.69062406 223.54131639 -192.15403077 220.47079858 -192.61914062 217.40039062 C-192.91726102 215.41415162 -193.21480766 213.42782639 -193.51171875 211.44140625 C-193.6471257 210.54015518 -193.78253265 209.63890411 -193.92204285 208.71034241 C-195.23163103 199.7984737 -196.15069428 190.98843515 -196.203125 181.9765625 C-196.21036591 181.15655762 -196.21760681 180.33655273 -196.22506714 179.49169922 C-196.53525344 134.05935156 -196.53525344 134.05935156 -183 113 C-182.05816008 111.49587716 -181.11800017 109.99070076 -180.1796875 108.484375 C-179.45324058 107.32284437 -178.72672273 106.16135808 -178 105 C-175.55887284 107.22543459 -174.09347174 109.40764611 -172.57421875 112.33203125 C-172.11450684 113.20206787 -171.65479492 114.07210449 -171.18115234 114.96850586 C-170.68824707 115.90702393 -170.1953418 116.84554199 -169.6875 117.8125 C-163.37712885 129.60323831 -156.33385151 140.82482017 -149 152 C-148.53851563 152.70737305 -148.07703125 153.41474609 -147.6015625 154.14355469 C-141.40079364 163.63730762 -134.93771178 172.94574366 -128.31738281 182.15136719 C-127.16696284 183.76570744 -126.0457433 185.40077681 -124.9296875 187.0390625 C-122.21592646 190.87240208 -120.9027854 192.68869469 -116.375 194.25 C-112.53041013 193.96521557 -111.10088358 193.23452985 -108 191 C-105.78540852 188.40948701 -105.78540852 188.40948701 -103.6875 185.25 C-103.27218018 184.65002197 -102.85686035 184.05004395 -102.42895508 183.43188477 C-101.48291998 182.0646384 -100.54070532 180.69474363 -99.6015625 179.32275391 C-97.83881843 176.76623759 -96.04639769 174.23219382 -94.25 171.69921875 C-85.33501416 159.08756359 -76.87639312 146.28580386 -69 133 C-68.45746582 132.08782715 -67.91493164 131.1756543 -67.35595703 130.23583984 C-42.35032458 88.14777577 -42.35032458 88.14777577 -40.5 40.625 C-42.76319987 32.86198108 -46.25174049 25.85902225 -50.06689453 18.75341797 C-51.4287949 16.19424256 -52.71484194 13.59834137 -54 11 C-42.53993059 5.82093017 -30.41310982 3.26605364 -18.0625 1.25 C-17.29429932 1.12230225 -16.52609863 0.99460449 -15.73461914 0.86303711 C-10.43928838 0.04973374 -5.35682172 -0.10639169 0 0 Z " fill="#00B976" transform="translate(234,19)"></path>
<path d="M0 0 C47.35912582 -1.98478292 94.39183605 13.67461395 134 39 C128.0947167 47.34884881 118.922753 52.75095658 109 55 C103.9681512 55.47005086 98.93293729 55.43628889 93.8828125 55.43945312 C84.10718041 55.61979239 77.07540763 58.25609246 69.9140625 64.9609375 C63.46339789 71.83287 59.78852147 79.06615872 57 88 C56.64292969 88.84949219 56.28585937 89.69898437 55.91796875 90.57421875 C52.48806613 103.37432341 53.57838599 119.92214702 59 132 C59.33902344 132.85980469 59.67804688 133.71960938 60.02734375 134.60546875 C66.13681084 148.62897862 77.78581667 156.74409028 91.421875 162.42578125 C95.24088355 163.79638099 99.0836274 164.95095635 103 166 C104.25514404 166.34272949 104.25514404 166.34272949 105.53564453 166.69238281 C121.18717243 170.84775523 137.85076845 173.53922351 153.90625 170 C168.81453406 166.76276423 185.13094834 167.63138554 199 174 C200.02738281 174.43441406 201.05476563 174.86882812 202.11328125 175.31640625 C219.24467141 183.11552161 230.63955502 195.45066307 238.94140625 212.1484375 C241.96859689 220.30286246 241.24210242 229.41556579 241.25 238 C241.25100708 238.75710266 241.25201416 239.51420532 241.25305176 240.29425049 C241.24129054 253.40697437 240.26372545 266.06940122 238 279 C237.87141602 279.81436523 237.74283203 280.62873047 237.61035156 281.46777344 C234.1727991 303.238939 226.50791815 324.18104255 217 344 C216.48203857 343.75354736 215.96407715 343.50709473 215.43041992 343.25317383 C201.26663415 336.51576609 201.26663415 336.51576609 187 330 C188.34843819 325.883715 189.69870318 321.79019355 191.2421875 317.7421875 C199.02046822 297.16886511 199.39613512 277.39095978 190.35546875 257.35546875 C180.57517332 238.39096814 165.71832736 224.9708312 145.5546875 217.76953125 C124.56605076 211.14783151 104.13178064 212.74789789 84.59716797 222.79272461 C78.85398709 225.9060579 73.82939001 229.59408262 69 234 C68.08734375 234.77537109 68.08734375 234.77537109 67.15625 235.56640625 C58.78045571 243.1617288 52.39065416 254.28005299 49 265 C48.55527344 266.24136719 48.55527344 266.24136719 48.1015625 267.5078125 C40.80124628 291.01617022 48.76892732 313.86445569 59 335 C59.95687976 336.80462456 60.92823423 338.60165007 61.9140625 340.390625 C62.3869873 341.25010742 62.85991211 342.10958984 63.34716797 342.99511719 C64.26452981 344.6331493 65.20297448 346.25959613 66.16455078 347.87207031 C67.3166644 349.90784389 68.31562454 351.76328248 69 354 C68.03125 356.70703125 68.03125 356.70703125 66 359 C65.33484375 359.83917969 64.6696875 360.67835938 63.984375 361.54296875 C62.87835938 362.85201172 62.87835938 362.85201172 61.75 364.1875 C58.71671328 367.8313834 55.90107559 371.50739671 53.25 375.4375 C50.85761455 378.94521666 48.5804294 381.61304707 45 384 C41.6869063 380.24325228 39.69824147 376.45338301 37.9375 371.8125 C37.68073486 371.15048584 37.42396973 370.48847168 37.15942383 369.80639648 C33.02606366 359.00243093 30.77848728 349.06945139 31.0078125 337.4765625 C31.02532965 335.86198546 31.04223785 334.24740172 31.05859375 332.6328125 C31.08945821 330.12936221 31.12497664 327.62625981 31.17138672 325.12304688 C31.41015294 311.48386183 30.86543695 299.78002265 21.3203125 289.125 C11.05925258 279.24713319 -4.58700401 275.95915294 -18.3125 274.3125 C-19.352854 274.1872998 -20.39320801 274.06209961 -21.46508789 273.93310547 C-35.50641448 272.36549325 -49.0024938 272.11480353 -62.87597656 274.91674805 C-67.82848723 275.88791 -72.64028231 276.36270043 -77.6875 276.4375 C-79.58048828 276.46650391 -79.58048828 276.46650391 -81.51171875 276.49609375 C-88.02184207 275.57024194 -92.30605874 271.2714176 -96.38671875 266.39453125 C-101.29600954 259.10785993 -103.56595491 249.69034434 -102 241 C-96.74332944 231.53799299 -84.08475363 228.84357699 -74.4375 225.6875 C-40.18089872 214.10375984 -5.22564742 193.21418851 11.75 160 C17.98805266 147.20644522 20.67349358 134.39837229 16.046875 120.44140625 C13.16074931 113.71070268 9.74282838 107.97174007 5.25 102.1875 C4.18069188 100.78147636 3.11168222 99.37522569 2.04296875 97.96875 C0.23800961 95.61070341 -1.57284294 93.25746054 -3.38671875 90.90625 C-7.90290993 84.91907083 -11.20423076 78.95691414 -14 72 C-14.35320312 71.19304687 -14.70640625 70.38609375 -15.0703125 69.5546875 C-21.55810961 51.72687527 -15.57853756 31.39668722 -8 15 C-5.48094299 9.91995992 -2.76583233 4.9490147 0 0 Z " fill="#82D6F2" transform="translate(254,18)"></path>
<path d="M0 0 C0.66 0 1.32 0 2 0 C2.13575439 0.96075439 2.27150879 1.92150879 2.41137695 2.91137695 C3.82840139 12.92937717 5.26009727 22.94520581 6.70581055 32.95910645 C6.96071152 34.72744231 7.21390943 36.4960235 7.46679688 38.26464844 C12.32126159 71.99231003 22.77725634 103.5495399 45.61230469 129.41992188 C46.92702124 130.91690385 48.21817391 132.43448517 49.5078125 133.953125 C62.40944208 148.80451854 80.3453142 160.42617204 100.265625 162.30859375 C126.49226325 163.26176452 150.44624501 153.43533109 173.671875 142.453125 C184.03547059 137.61158331 191.78741422 135.23871359 203.0625 138.5625 C215.34251511 143.05940694 224.52451362 152.94056761 229.9921875 164.640625 C230.49105469 165.80851562 230.49105469 165.80851562 231 167 C231.52980469 168.19882812 231.52980469 168.19882812 232.0703125 169.421875 C234.22929466 175.40896838 234.24201749 181.52076111 234.3125 187.8125 C234.34150391 188.66392578 234.37050781 189.51535156 234.40039062 190.39257812 C234.48805306 199.24648426 231.36308405 206.5698174 225.3828125 213.09375 C221.7928375 215.96573 217.74152317 217.67347195 213.56152344 219.4987793 C202.98241558 224.12285621 196.1029172 230.48840969 191.6875 241.25 C190.07248605 245.52944624 188.87485787 249.41552054 188.8671875 254.01171875 C188.86525391 254.76598145 188.86332031 255.52024414 188.86132812 256.29736328 C188.8680957 257.48048096 188.8680957 257.48048096 188.875 258.6875 C188.87693359 259.49171387 188.87886719 260.29592773 188.88085938 261.12451172 C188.91992847 266.48240363 189.21386118 271.69356297 190 277 C183.36858017 276.43121021 177.31452503 275.19253881 170.9375 273.3125 C170.02210449 273.0455835 169.10670898 272.77866699 168.16357422 272.50366211 C154.58271683 268.46966201 141.68665449 263.28733318 129 257 C128.0087915 256.51539307 128.0087915 256.51539307 126.99755859 256.02099609 C106.42676089 245.88515847 86.45441711 232.28800922 70.58984375 215.625 C68.83273253 213.76863216 68.83273253 213.76863216 65.9375 211.5 C62.19340885 208.31353944 59.15891207 204.75552568 56 201 C55.25878906 200.14664063 54.51757812 199.29328125 53.75390625 198.4140625 C42.54241179 185.31903697 32.98957968 171.2718851 25 156 C24.64953613 155.33081543 24.29907227 154.66163086 23.93798828 153.97216797 C21.53927435 149.35500307 19.24266703 144.69469892 17 140 C16.48824219 138.94296875 15.97648437 137.8859375 15.44921875 136.796875 C8.67186819 121.96342849 4.01739881 105.80313614 0.625 89.875 C0.48175293 89.20380127 0.33850586 88.53260254 0.19091797 87.84106445 C-0.25789762 85.56672007 -0.63777697 83.28983635 -1 81 C-1.17587646 79.91412598 -1.35175293 78.82825195 -1.53295898 77.70947266 C-3.12155206 66.70586977 -3.33956534 55.80806866 -3.31567383 44.70117188 C-3.31251172 41.63635703 -3.33607502 38.57250913 -3.36132812 35.5078125 C-3.39834973 23.36545783 -2.4700227 11.89311724 0 0 Z " fill="#82D6F2" transform="translate(20,214)"></path>
<path d="M0 0 C2.43657747 1.64360847 4.72817021 3.37558931 7.015625 5.21875 C8.046875 5.96125 9.078125 6.70375 10.140625 7.46875 C21.61334112 18.44265237 28.68721856 33.75972542 29.640625 49.59375 C29.2786146 64.60072676 22.08509906 79.26421242 15.06591797 92.26074219 C13.98343487 94.27876042 12.93615085 96.31218096 11.89453125 98.3515625 C3.68966865 114.31130198 -5.87547528 129.40716154 -15.984375 144.21875 C-16.46503418 144.92402832 -16.94569336 145.62930664 -17.44091797 146.35595703 C-26.77280116 160.03204483 -26.77280116 160.03204483 -29.984375 164.21875 C-33.74767478 162.73847066 -35.25917604 160.78816557 -37.453125 157.44140625 C-38.10031494 156.46324951 -38.74750488 155.48509277 -39.41430664 154.47729492 C-40.43899048 152.89525269 -40.43899048 152.89525269 -41.484375 151.28125 C-42.19779053 150.19239502 -42.91120605 149.10354004 -43.64624023 147.98168945 C-45.76860927 144.73354413 -47.87689002 141.47656413 -49.984375 138.21875 C-51.04784185 136.5961344 -52.11160809 134.97371496 -53.17578125 133.3515625 C-95.88293093 67.6289697 -95.88293093 67.6289697 -90.2890625 39.75390625 C-85.78089968 22.30845263 -76.17552884 8.92420939 -60.984375 -0.78125 C-41.69471094 -11.18751614 -18.87152743 -11.26363418 0 0 Z " fill="#FC4F22" transform="translate(149.984375,25.78125)"></path>
<path d="M0 0 C13.24876166 10.01705438 22.76299169 23.56893806 26 40 C27.58696342 53.65069422 24.26355306 64.53356042 19 77 C18.68417969 77.75974121 18.36835938 78.51948242 18.04296875 79.30224609 C11.53746969 94.65910576 2.65819566 108.79316093 -6 123 C-6.89745498 124.49069308 -7.79463936 125.98154913 -8.69140625 127.47265625 C-13.65723463 135.64900777 -19.02342791 143.55262475 -24.4375 151.4375 C-25.13681641 152.46456055 -25.83613281 153.49162109 -26.55664062 154.54980469 C-27.21728516 155.50145508 -27.87792969 156.45310547 -28.55859375 157.43359375 C-29.44502563 158.71834595 -29.44502563 158.71834595 -30.34936523 160.02905273 C-32 162 -32 162 -35 163 C-35.47743652 162.28166992 -35.95487305 161.56333984 -36.44677734 160.82324219 C-40.01887689 155.45600025 -43.60497635 150.09969203 -47.2265625 144.765625 C-63.78950717 120.28703368 -78.49897106 95.26054699 -90 68 C-90.37382812 67.14792969 -90.74765625 66.29585938 -91.1328125 65.41796875 C-95.0259188 54.56286606 -94.54349019 39.3821584 -90.328125 28.76953125 C-81.51142535 10.38411932 -69.58303113 -0.84342557 -50.390625 -7.96875 C-33.58611908 -13.3382371 -14.63739633 -9.47702738 0 0 Z " fill="#FCCB00" transform="translate(409,258)"></path>
<path d="M0 0 C4.52158285 1.43004357 7.4608925 3.96028652 10.8125 7.1875 C11.87680605 8.19095137 12.94191042 9.19355666 14.0078125 10.1953125 C14.52118164 10.68032227 15.03455078 11.16533203 15.56347656 11.66503906 C17.38715943 13.35978718 19.28085019 14.96213931 21.1875 16.5625 C25.8910558 20.6563356 29.92011107 25.29651829 34 30 C34.84433594 30.94488281 35.68867188 31.88976562 36.55859375 32.86328125 C48.59995062 46.50779695 58.66902542 61.83907959 67 78 C67.4031543 78.78036621 67.80630859 79.56073242 68.22167969 80.36474609 C73.41159546 90.53913516 77.8896094 100.85004281 81.6875 111.625 C82.0388501 112.61508057 82.3902002 113.60516113 82.75219727 114.62524414 C83.06471436 115.5455542 83.37723145 116.46586426 83.69921875 117.4140625 C83.97596436 118.2282666 84.25270996 119.0424707 84.5378418 119.88134766 C85 122 85 122 84 125 C83.13375 124.175 82.2675 123.35 81.375 122.5 C63.90805228 107.68272898 40.64346727 100.7799508 18.03955078 101.82568359 C14.68399288 102.11247655 11.41272596 102.7979017 8.125 103.5 C-13.96512928 108.12320069 -41.76413555 104.12270828 -60.85546875 91.6484375 C-68.86179696 85.49421071 -73.8580654 76.86070053 -76 67 C-77.20347538 53.45633709 -76.58076499 39.45941798 -67.51953125 28.5859375 C-63.5822046 24.47654259 -60.47699376 21.93234886 -54.78125 21.75390625 C-53.93626953 21.72264648 -53.09128906 21.69138672 -52.22070312 21.65917969 C-51.32287109 21.62727539 -50.42503906 21.59537109 -49.5 21.5625 C-29.64363042 20.6726768 -13.82438365 14.94527962 0 0 Z " fill="#00BA76" transform="translate(401,68)"></path>
<path d="M0 0 C1.12148437 0.62068359 1.12148437 0.62068359 2.265625 1.25390625 C7.84753408 4.64556292 11.60939745 8.43487727 15 14 C15.62068359 14.98226562 15.62068359 14.98226562 16.25390625 15.984375 C20.45350195 23.76899141 20.38233074 33.03720602 18.046875 41.421875 C13.7475232 52.36073212 7.01598688 58.98263368 -3.6875 63.875 C-13.08876844 66.97760549 -22.67796812 65.58452844 -31.4453125 61.41015625 C-39.56928108 56.92582497 -45.56528094 49.27649586 -48.52734375 40.42578125 C-50.32240939 31.21308898 -50.0703912 22.03340105 -45 14 C-44.5875 13.31550781 -44.175 12.63101563 -43.75 11.92578125 C-34.49631845 -1.87587447 -15.06294505 -8.52923171 0 0 Z " fill="#040101" transform="translate(134,38)"></path>
<path d="M0 0 C4.47105104 2.63819782 7.8062262 5.43685717 10.640625 9.796875 C11.11757813 10.51488281 11.59453125 11.23289062 12.0859375 11.97265625 C16.80224024 20.25840123 17.76342329 28.13954986 16.515625 37.484375 C13.48462816 48.35747476 8.13482808 54.86779334 -1.484375 60.484375 C-9.65785416 64.86302455 -20.68388362 65.20685594 -29.5625 62.5703125 C-32.05961935 61.38303183 -34.23558874 60.0894409 -36.484375 58.484375 C-37.13792969 58.02675781 -37.79148437 57.56914062 -38.46484375 57.09765625 C-42.97038622 53.59121062 -45.79741084 49.4744513 -48.484375 44.484375 C-49.0825 43.453125 -49.680625 42.421875 -50.296875 41.359375 C-53.32353758 33.67900002 -52.31176998 24.63454709 -49.421875 17.109375 C-44.9245986 7.66258212 -38.77014381 2.17596099 -29.484375 -2.515625 C-19.99070787 -5.68018071 -8.87818837 -4.1093329 0 0 Z " fill="#030301" transform="translate(392.484375,269.515625)"></path>
<path d="M0 0 C4.3902459 2.50244016 6.95719188 5.79387867 8.75 10.5 C9.74108087 16.13200766 9.03130224 20.73681932 5.75 25.5 C1.40518465 29.87562964 -1.7147637 32.333755 -8.0625 32.75 C-12.96639614 32.65138417 -16.36835924 31.36401415 -19.91796875 27.84765625 C-24.18845625 23.04969761 -25.68446264 19.36917331 -25.58984375 12.9140625 C-24.89977323 8.01218225 -22.34678839 4.34704684 -18.67578125 1.11328125 C-12.83856234 -2.76459146 -6.34362351 -2.6760295 0 0 Z " fill="#EDEEEE" transform="translate(127.25,53.5)"></path>
<path d="M0 0 C5.01791684 2.41935276 8.49958655 5.9991731 11 11 C11.55713132 16.95701945 11.52180186 21.95208399 8 27 C3.66309355 31.25595086 0.45165663 33.18366498 -5.625 33.4375 C-11.13717676 33.38456193 -14.31959419 32.42860349 -18.44140625 28.76953125 C-22.20963208 24.49131997 -23.65703519 19.73855103 -23.4140625 14.05078125 C-22.36162911 8.83825737 -19.15427613 5.12612305 -15.4375 1.5 C-10.29517977 -0.74392156 -5.52295971 -0.75106183 0 0 Z " fill="#EDEEEE" transform="translate(381,283)"></path>
</svg></svg></g></g><defs><clipPath id="SvgjsClipPath1098"><rect width="1000" height="1000" x="0" y="0" rx="500" ry="500"></rect></clipPath></defs></svg>